<svg xmlns="http://www.w3.org/2000/svg" xmlns:xlink="http://www.w3.org/1999/xlink" width="90" zoomAndPan="magnify" viewBox="0 0 67.5 67.499996" height="90" preserveAspectRatio="xMidYMid meet" version="1.0"><defs><clipPath id="44e995e0d8"><path d="M 2.75 2.691406 L 64.542969 2.691406 L 64.542969 64.324219 L 2.75 64.324219 Z M 2.75 2.691406 " clip-rule="nonzero"/></clipPath><clipPath id="1e5ba7721f"><path d="M 0 0 L 67.003906 0 L 67.003906 67.003906 L 0 67.003906 Z M 0 0 " clip-rule="nonzero"/></clipPath></defs><g clip-path="url(#44e995e0d8)"><path fill="#000000" d="M 20.660156 19.277344 L 47.574219 19.277344 L 47.574219 46.191406 L 64.320312 62.9375 L 64.320312 2.535156 L 3.914062 2.535156 Z M 46.207031 47.558594 L 19.296875 47.558594 L 19.296875 20.644531 L 2.550781 3.898438 L 2.550781 64.300781 L 62.953125 64.300781 Z M 46.207031 47.558594 " fill-opacity="1" fill-rule="nonzero"/></g><g clip-path="url(#1e5ba7721f)"><path stroke-linecap="butt" transform="matrix(0.744485, 0, 0, 0.744485, 0.000002, -0.00000198529)" fill="none" stroke-linejoin="miter" d="M -0.00000268642 0.00000266667 L 90.000315 0.00000266667 L 90.000315 90.00032 L -0.00000268642 90.00032 Z M -0.00000268642 0.00000266667 " stroke="#000000" stroke-width="2" stroke-opacity="1" stroke-miterlimit="4"/></g></svg>