<svg xmlns="http://www.w3.org/2000/svg" xmlns:xlink="http://www.w3.org/1999/xlink" width="90" zoomAndPan="magnify" viewBox="0 0 67.5 67.499996" height="90" preserveAspectRatio="xMidYMid meet" version="1.0"><defs><clipPath id="4ce3e9075a"><path d="M 0 0 L 67.003906 0 L 67.003906 67.003906 L 0 67.003906 Z M 0 0 " clip-rule="nonzero"/></clipPath><clipPath id="aa4125503b"><path d="M 2.769531 2.769531 L 64.5625 2.769531 L 64.5625 64.5625 L 2.769531 64.5625 Z M 2.769531 2.769531 " clip-rule="nonzero"/></clipPath></defs><g clip-path="url(#4ce3e9075a)"><path stroke-linecap="butt" transform="matrix(0.744485, 0, 0, 0.744485, 0.000002, -0.00000198529)" fill="none" stroke-linejoin="miter" d="M -0.00000268642 0.00000266667 L 90.000315 0.00000266667 L 90.000315 90.00032 L -0.00000268642 90.00032 Z M -0.00000268642 0.00000266667 " stroke="#ffffff" stroke-width="2" stroke-opacity="1" stroke-miterlimit="4"/></g><g clip-path="url(#aa4125503b)"><path fill="#ffffff" d="M 20.824219 19.523438 L 47.59375 19.523438 L 47.59375 46.445312 L 64.25 63.199219 L 64.25 2.769531 L 4.167969 2.769531 Z M 46.238281 47.8125 L 19.464844 47.8125 L 19.464844 20.886719 L 2.808594 4.136719 L 2.808594 64.5625 L 62.894531 64.5625 Z M 46.238281 47.8125 " fill-opacity="1" fill-rule="nonzero"/></g></svg>