<svg data-v-423bf9ae="" xmlns="http://www.w3.org/2000/svg" viewBox="0 0 882 90" class="iconLeft"><!----><!----><!----><g data-v-423bf9ae="" id="915bac46-1dd2-4db0-90ef-b0e1c4a4fa21" fill="#ffffff" transform="matrix(6.153846153846154,0,0,6.153846153846154,107.84615994416748,-7.092308631310097)"><path d="M0.35 3.82L0.35 5.03L5.16 5.03C3.22 7.41 1.75 10.65 1.75 13.15L3.24 13.15C3.24 10.21 4.67 7.44 6.80 4.78L6.80 3.82ZM12.28 13.34C15.25 13.34 17.22 11.17 17.22 8.46C17.22 5.75 15.25 3.59 12.28 3.59C9.30 3.59 7.34 5.75 7.34 8.46C7.34 11.17 9.30 13.34 12.28 13.34ZM12.28 12.02C10.19 12.02 8.88 10.37 8.88 8.46C8.88 6.53 10.19 4.91 12.28 4.91C14.36 4.91 15.68 6.53 15.68 8.46C15.68 10.37 14.36 12.02 12.28 12.02ZM25.38 3.82L25.38 10.78L20.40 3.82L19.00 3.82L19.00 13.15L20.45 13.15L20.45 6.21L25.42 13.15L26.80 13.15L26.80 3.82ZM35.51 5.07L35.51 3.82L29.15 3.82L29.15 13.15L35.51 13.15L35.51 11.90L30.64 11.90L30.64 9.07L34.78 9.07L34.78 7.90L30.64 7.90L30.64 5.07ZM45.47 13.34C46.59 13.34 47.59 13.02 48.39 12.45L47.60 11.27C47.03 11.74 46.30 12.02 45.47 12.02C43.40 12.02 42.10 10.37 42.10 8.46C42.10 6.55 43.40 4.91 45.47 4.91C46.30 4.91 47.03 5.19 47.60 5.66L48.39 4.48C47.59 3.91 46.59 3.59 45.47 3.59C42.52 3.59 40.56 5.75 40.56 8.46C40.56 11.19 42.52 13.34 45.47 13.34ZM54.41 13.34C57.39 13.34 59.35 11.17 59.35 8.46C59.35 5.75 57.39 3.59 54.41 3.59C51.44 3.59 49.47 5.75 49.47 8.46C49.47 11.17 51.44 13.34 54.41 13.34ZM54.41 12.02C52.32 12.02 51.01 10.37 51.01 8.46C51.01 6.53 52.32 4.91 54.41 4.91C56.50 4.91 57.81 6.53 57.81 8.46C57.81 10.37 56.50 12.02 54.41 12.02ZM67.51 3.82L67.51 10.78L62.53 3.82L61.13 3.82L61.13 13.15L62.58 13.15L62.58 6.21L67.55 13.15L68.94 13.15L68.94 3.82ZM74.27 13.34C76.08 13.34 77.79 12.57 77.79 10.60C77.79 9.04 76.55 8.33 75.18 7.85C73.62 7.28 72.73 6.90 72.73 6.14C72.73 5.40 73.44 4.87 74.39 4.87C75.19 4.87 75.85 5.12 76.53 5.69L77.50 4.71C76.75 4.08 75.86 3.59 74.24 3.59C72.61 3.59 71.18 4.62 71.18 6.17C71.18 7.86 72.73 8.44 74.26 8.98C75.28 9.36 76.21 9.76 76.21 10.69C76.21 11.61 75.25 12.06 74.23 12.06C73.06 12.06 72.29 11.74 71.60 10.89L70.55 11.91C71.39 12.85 72.51 13.34 74.27 13.34ZM83.33 13.34C85.58 13.34 87.21 12.22 87.21 9.54L87.21 3.82L85.72 3.82L85.72 9.35C85.72 11.29 84.71 12.02 83.33 12.02C81.96 12.02 80.95 11.29 80.95 9.35L80.95 3.82L79.46 3.82L79.46 9.54C79.46 12.22 81.08 13.34 83.33 13.34ZM90.80 11.87L90.80 3.82L89.31 3.82L89.31 13.15L95.11 13.15L95.11 11.87ZM102.46 3.82L95.26 3.82L95.26 5.09L98.13 5.09L98.13 13.15L99.62 13.15L99.62 5.09L102.46 5.09ZM105.18 3.82L103.69 3.82L103.69 13.15L105.18 13.15ZM113.90 3.82L113.90 10.78L108.92 3.82L107.52 3.82L107.52 13.15L108.97 13.15L108.97 6.21L113.94 13.15L115.33 13.15L115.33 3.82ZM121.87 8.06L121.87 9.23L124.26 9.23L124.26 11.62C123.86 11.86 123.16 12.05 122.14 12.05C119.93 12.03 118.66 10.43 118.66 8.46C118.66 6.45 120.01 4.93 122.16 4.91C123.35 4.91 124.25 5.45 124.56 5.63L125.27 4.43C124.48 3.97 123.42 3.59 122.14 3.59C118.99 3.59 117.12 5.78 117.12 8.46C117.12 11.13 118.97 13.34 122.12 13.34C123.86 13.34 125.18 12.82 125.71 12.41L125.71 8.06Z"></path></g><!----><g data-v-423bf9ae="" id="2f492631-bb58-46ad-a870-fb75be77531e" transform="matrix(2.8125,0,0,2.8125,0,0)" stroke="none" fill="#DF4949"><path d="M9.382 8.675h13.943v13.943L32 31.293V0H.707zM22.618 23.325H8.675V9.382L0 .707V32h31.293z"></path></g><!----></svg>